<?xml version="1.0" encoding="utf-8"?>

<!DOCTYPE svg PUBLIC "-//W3C//DTD SVG 1.1//EN" "http://www.w3.org/Graphics/SVG/1.1/DTD/svg11.dtd">
<svg version="1.1" id="Layer_1" xmlns="http://www.w3.org/2000/svg" xmlns:xlink="http://www.w3.org/1999/xlink" x="0px" y="0px"
	 width="502px" height="347px" viewBox="0 0 502 347" enable-background="new 0 0 502 347" xml:space="preserve">


<defs>
	<style type="text/css">
	text {
	  font-family: Helvetica, Verdana, ArialUnicodeMS, san-serif
	}
	</style>
</defs>

<g>
   <desc>
	PS 3.4 Service Class Specifications
   </desc>
</g>

<g>
	<rect x="1" y="1" fill="#F5EED6" width="500" height="345"/>
	<g>
		
			<rect x="363.438" y="193.377" fill="#86B2D8" stroke="#010101" stroke-width="0.75" stroke-linecap="round" stroke-linejoin="round" stroke-miterlimit="1" width="63" height="43.199"/>
		<text transform="matrix(1 0 0 1 369.9219 205.752)"><tspan x="0" y="0"  font-size="10">Information</tspan><tspan x="10.562" y="12"  font-size="10">Object</tspan><tspan x="4.168" y="24"  font-size="10">Definition</tspan></text>
		
			<rect x="63.494" y="288.988" fill="#86B2D8" stroke="#010101" stroke-width="0.75" stroke-linecap="round" stroke-linejoin="round" stroke-miterlimit="1" width="86.399" height="43.201"/>
		<text transform="matrix(1 0 0 1 70.3003 301.3516)"><tspan x="0" y="0"  font-size="10">DIMSE Services</tspan><tspan x="-1.958" y="12"  font-size="10">or Media Storage</tspan><tspan x="17.224" y="24"  font-size="10">Services</tspan></text>
		<g>
			<g>
				
					<line fill="none" stroke="#005695" stroke-width="2" stroke-miterlimit="1" x1="250.724" y1="43.723" x2="250.724" y2="54.801"/>
				<g>
					<polygon fill="#005695" points="248.399,53.215 250.724,61.888 253.048,53.215 					"/>
				</g>
			</g>
		</g>
		<g>
			<g>
				<line fill="none" stroke="#005695" stroke-width="2" stroke-miterlimit="1" x1="106.73" y1="226.73" x2="106.73" y2="235.842"/>
				<g>
					<polygon fill="#005695" points="104.406,234.257 106.73,242.93 109.055,234.257 					"/>
				</g>
			</g>
		</g>
		<g>
			<g>
				
					<line fill="none" stroke="#005695" stroke-width="2" stroke-miterlimit="1" x1="394.943" y1="237.291" x2="394.943" y2="247.377"/>
				<g>
					<polygon fill="#005695" points="392.619,245.792 394.943,254.465 397.268,245.792 					"/>
				</g>
			</g>
		</g>
		<g>
			<g>
				
					<line fill="none" stroke="#005695" stroke-width="2" stroke-miterlimit="1" x1="106.73" y1="270.859" x2="106.73" y2="281.771"/>
				<g>
					<polygon fill="#005695" points="104.406,280.187 106.73,288.859 109.055,280.187 					"/>
				</g>
			</g>
		</g>
		<g>
			<g>
				
					<line fill="none" stroke="#005695" stroke-width="2" stroke-miterlimit="1" x1="394.943" y1="281.994" x2="394.943" y2="292.436"/>
				<g>
					<polygon fill="#005695" points="392.619,290.851 394.943,299.523 397.268,290.851 					"/>
				</g>
			</g>
		</g>
		<g>
			<g>
				
					<line fill="none" stroke="#005695" stroke-width="2" stroke-miterlimit="1" x1="250.724" y1="88.873" x2="250.724" y2="97.182"/>
				<g>
					<polygon fill="#005695" points="248.399,95.596 250.724,104.269 253.048,95.596 					"/>
				</g>
			</g>
		</g>
		<g>
			<g>
				
					<line fill="none" stroke="#005695" stroke-width="2" stroke-miterlimit="1" x1="250.724" y1="126.072" x2="250.724" y2="137.282"/>
				<g>
					<polygon fill="#005695" points="248.399,135.697 250.724,144.37 253.048,135.697 					"/>
				</g>
			</g>
		</g>
		<g>
			<g>
				
					<line fill="none" stroke="#005695" stroke-width="2" stroke-miterlimit="1" x1="299.818" y1="214.82" x2="356.111" y2="214.82"/>
				<g>
					<polygon fill="#005695" points="354.526,217.145 363.199,214.82 354.526,212.496 					"/>
				</g>
			</g>
		</g>
		
			<rect x="214.713" y="14.812" fill="#86B2D8" stroke="#010101" stroke-width="0.75" stroke-linecap="round" stroke-linejoin="round" stroke-miterlimit="1" width="72.005" height="28.8"/>
		<text transform="matrix(1 0 0 1 220.1514 26.3525)"><tspan x="0" y="0"  font-size="10">Service Class</tspan><tspan x="2.214" y="12"  font-size="10">Specification</tspan></text>
		<g>
			<text transform="matrix(1 0 0 1 400.6133 189.1855)"  font-size="9">1</text>
		</g>
		<g>
			<text transform="matrix(1 0 0 1 111.2793 199.9053)"  font-size="9">1</text>
		</g>
		<g>
			<g>
				
					<line fill="none" stroke="#005695" stroke-width="2" stroke-miterlimit="1" x1="142.909" y1="214.82" x2="194.582" y2="214.82"/>
				<g>
					<polygon fill="#005695" points="192.996,217.145 201.669,214.82 192.996,212.496 					"/>
				</g>
			</g>
		</g>
		
			<rect x="214.843" y="104.269" fill="#86B2D8" stroke="#010101" stroke-width="0.75" stroke-linecap="round" stroke-linejoin="round" stroke-miterlimit="1" width="72.005" height="21.6"/>
		<text transform="matrix(1 0 0 1 217.7837 117.8574)"  font-size="10">SOP Class(es)</text>
		
			<rect x="363.199" y="299.523" fill="#86B2D8" stroke="#010101" stroke-width="0.75" stroke-linecap="round" stroke-linejoin="round" stroke-miterlimit="1" width="63" height="14.4"/>
		<text transform="matrix(1 0 0 1 373.5801 309.4893)"  font-size="10">Attributes</text>
		
			<rect x="70.725" y="204.172" fill="#86B2D8" stroke="#010101" stroke-width="0.75" stroke-linecap="round" stroke-linejoin="round" stroke-miterlimit="1" width="71.999" height="21.602"/>
		<text transform="matrix(1 0 0 1 74.769 217.752)"  font-size="10">Service Group</text>
		<g>
			<g>
				<polyline fill="none" stroke="#005695" stroke-width="2" stroke-miterlimit="1" points="250.687,171.775 250.687,178.797 
					178.948,178.797 178.417,178.797 106.683,178.797 106.683,197.088 				"/>
				<g>
					<polygon fill="#005695" points="104.358,195.503 106.683,204.176 109.007,195.503 					"/>
				</g>
			</g>
		</g>
		<g>
			<g>
				<polyline fill="none" stroke="#005695" stroke-width="2" stroke-miterlimit="1" points="250.935,171.775 250.935,178.797 
					322.668,178.797 323.199,178.797 394.934,178.797 394.934,186.652 				"/>
				<g>
					<polygon fill="#005695" points="392.609,185.067 394.934,193.74 397.258,185.067 					"/>
				</g>
			</g>
		</g>
		
			<polygon fill="#CCDEF0" stroke="#010101" stroke-width="0.75" stroke-linecap="round" stroke-linejoin="round" stroke-miterlimit="1" points="
			201.192,75.181 250.62,61.888 300.189,75.373 300.189,75.404 250.62,88.888 		"/>
		<g>
			<text transform="matrix(1 0 0 1 218.019 77.8916)"  font-size="9">specifies related</text>
		</g>
		<g>
			<text transform="matrix(1 0 0 1 275.75 65.1553)"  font-size="9">1</text>
		</g>
		<g>
			<text transform="matrix(1 0 0 1 275.75 92.2012)"  font-size="9">n</text>
		</g>
		
			<polygon fill="#CCDEF0" stroke="#010101" stroke-width="0.75" stroke-linecap="round" stroke-linejoin="round" stroke-miterlimit="1" points="
			201.426,157.662 250.853,144.37 300.42,157.853 300.42,157.884 250.853,171.36 		"/>
		<g>
			<text transform="matrix(1 0 0 1 275.9814 147.6318)"  font-size="9">1</text>
		</g>
		
			<polygon fill="#CCDEF0" stroke="#010101" stroke-width="0.75" stroke-linecap="round" stroke-linejoin="round" stroke-miterlimit="1" points="
			57.436,257.064 106.863,243.771 156.436,257.256 156.436,257.287 106.863,270.771 		"/>
		<g>
			<text transform="matrix(1 0 0 1 82.0151 259.7773)"  font-size="9">is a group of</text>
		</g>
		<g>
			<text transform="matrix(1 0 0 1 131.9941 247.041)"  font-size="9">1</text>
		</g>
		<g>
			<text transform="matrix(1 0 0 1 131.9932 274.0859)"  font-size="9">n</text>
		</g>
		
			<polygon fill="#CCDEF0" stroke="#010101" stroke-width="0.75" stroke-linecap="round" stroke-linejoin="round" stroke-miterlimit="1" points="
			345.564,267.758 394.992,254.465 444.564,267.949 444.564,267.98 394.992,281.465 		"/>
		<g>
			<text transform="matrix(1 0 0 1 378.1494 270.4727)"  font-size="9">contains</text>
		</g>
		<g>
			<text transform="matrix(1 0 0 1 420.123 257.7363)"  font-size="9">1</text>
		</g>
		<g>
			<text transform="matrix(1 0 0 1 420.123 284.7812)"  font-size="9">n</text>
		</g>
		<g>
			<text transform="matrix(1 0 0 1 229.77 161.0146)"  font-size="9">defined as</text>
		</g>
		<g>
			<text transform="matrix(1 0 0 1 216.0454 204.8115)"  font-size="9">1</text>
		</g>
		
			<polygon fill="#CCDEF0" stroke="#010101" stroke-width="0.75" stroke-linecap="round" stroke-linejoin="round" stroke-miterlimit="1" points="
			201.669,214.842 251.097,201.551 300.663,215.033 300.663,215.064 251.097,228.541 		"/>
		<g>
			<text transform="matrix(1 0 0 1 276.2246 204.8105)"  font-size="9">1</text>
		</g>
		<g>
			<text transform="matrix(1 0 0 1 225.0083 218.1943)"  font-size="9">applied to an</text>
		</g>
	</g>
</g>
</svg>
